<?xml version="1.0" encoding="UTF-8"?>
<!DOCTYPE svg PUBLIC "-//W3C//DTD SVG 1.1//EN" "http://www.w3.org/Graphics/SVG/1.1/DTD/svg11.dtd">
<!-- Creator: CorelDRAW 2021 (64-Bit) -->
<svg xmlns="http://www.w3.org/2000/svg" xml:space="preserve" width="3.93701in" height="3.93701in" version="1.1" style="shape-rendering:geometricPrecision; text-rendering:geometricPrecision; image-rendering:optimizeQuality; fill-rule:evenodd; clip-rule:evenodd"
viewBox="0 0 3937.01 3937.01"
 xmlns:xlink="http://www.w3.org/1999/xlink"
 xmlns:xodm="http://www.corel.com/coreldraw/odm/2003">
 <defs>
  <style type="text/css">
   <![CDATA[
    .fil0 {fill:#ABABAB}
    .fil1 {fill:url(#id0)}
    .fil3 {fill:url(#id1)}
    .fil2 {fill:url(#id2)}
   ]]>
  </style>
  <linearGradient id="id0" gradientUnits="userSpaceOnUse" x1="1906.42" y1="1702.54" x2="2028.99" y2="670.43">
   <stop offset="0" style="stop-opacity:1; stop-color:#DC6538"/>
   <stop offset="0.341176" style="stop-opacity:1; stop-color:#E8981C"/>
   <stop offset="1" style="stop-opacity:1; stop-color:#F5CC00"/>
  </linearGradient>
  <linearGradient id="id1" gradientUnits="userSpaceOnUse" x1="1932.09" y1="441.45" x2="2001.93" y2="2958.36">
   <stop offset="0" style="stop-opacity:1; stop-color:#87D4ED"/>
   <stop offset="0.113725" style="stop-opacity:1; stop-color:#5796C9"/>
   <stop offset="0.211765" style="stop-opacity:1; stop-color:#2658A5"/>
   <stop offset="0.415686" style="stop-opacity:1; stop-color:#4591C4"/>
   <stop offset="0.670588" style="stop-opacity:1; stop-color:#64CAE4"/>
   <stop offset="0.756863" style="stop-opacity:1; stop-color:#329CCA"/>
   <stop offset="1" style="stop-opacity:1; stop-color:#006DB0"/>
  </linearGradient>
  <linearGradient id="id2" gradientUnits="userSpaceOnUse" x1="1971.13" y1="2294.37" x2="1964.58" y2="3288.53">
   <stop offset="0" style="stop-opacity:1; stop-color:#F58634"/>
   <stop offset="0.54902" style="stop-opacity:1; stop-color:#FAA91A"/>
   <stop offset="1" style="stop-opacity:1; stop-color:#FFCC00"/>
  </linearGradient>
 </defs>
 <g id="Layer_x0020_1">
  <metadata id="CorelCorpID_0Corel-Layer"/>
  <g id="_1575979862416">
   <path class="fil0" d="M2723.73 3498.53c14.41,-10.78 18.37,-2.29 20.47,-14.13l-0.31 -4.31 -6.54 -1.18c-9.05,3.02 -12.85,12 -13.63,19.62z"/>
   <polygon class="fil0" points="2584.9,1988.69 2594.12,1990.73 2597.66,1980.16 2584.9,1980.01 "/>
   <path class="fil0" d="M2431.2 1909.31l0.92 -0.92c-0.06,0.06 -1.22,0.61 -0.92,0.92z"/>
   <path class="fil1" d="M2439.22 1576.81l-0.56 0.77 0.56 -0.81 -0 0.04zm-1.49 2.06c-9.04,12.39 -57.53,77.28 -98.15,99.45 9.5,-5.32 17.79,-12.34 24.4,-19.71 1.41,-83.67 0.47,-168.22 0.39,-252 -0.02,-21.01 0.14,-42.05 -0.04,-63.06 -0.24,-28.28 -5.52,-33.73 12.7,-48.33 21.59,-17.29 50.16,-37.08 71.47,-49.15 -0.78,19.29 3.1,55.88 -8.75,68.1 -1.94,2.01 -4.3,3.89 -6.81,5.82 -5.39,4.13 -7.6,4.25 -11.28,8.09 -8.89,9.3 -6.54,17.58 -6.5,31.02 0.22,81.69 -3.02,165.41 -0.02,246.77 8.45,-8.75 15.93,-17.77 22.59,-27zm-111.83 105.54c-37.54,12.94 -61.51,-10.04 -61.51,-10.04 -5.83,-58.3 -1.21,-139.97 -1.24,-200.81 -0.03,-66.93 -0.08,-133.88 0.04,-200.81 0.06,-36.46 -7.43,-66.87 15.02,-84.08 47.27,-36.24 91.09,-76.47 135.38,-116.6 9.93,-9 19.1,-14.08 27.57,-23.2 72.5,23.82 112.57,20.41 155.95,-29.79 44.26,-51.22 39.46,-107.7 -3.96,-154.16 -57.1,-61.11 -175.7,-42.64 -203.03,49.76 -12.22,41.31 -1.13,56.38 9.54,90.32 -38.09,41.58 -112.57,111.86 -158.96,146.07 -29.85,22.02 -30.37,27.06 -30.25,74.4 0.34,139.48 -2.23,280.35 0.1,419.62l53.84 29.3c21.86,15.19 43.2,16.14 61.51,10.04zm-147.39 -54.19c-28.1,-11.27 -71.27,-24.53 -115.48,-22.63l7.44 -0.5 0.1 -511.54c-0.06,-72.19 2.52,-61.06 45.39,-108.52 5.84,-6.47 6.66,-9.04 12.26,-15.48 5.28,-6.07 7.2,-6.51 11.56,-11.82 12.33,-15 27.8,-42.33 46.66,-52.01 -19.76,-108.51 70.86,-112.85 109.17,-84.15 25.55,19.15 32.82,59.57 15.58,86.81 -18.74,29.63 -50.96,31.31 -82.95,29.47 -7.4,17.55 -10.89,15.87 -22.48,30.46l-21.5 25.75c-62.93,80.22 -63.72,48.97 -63.71,130.98l-0.01 482.84c12.53,6.63 31.95,9.87 46.64,15.49 4.06,1.55 7.78,3.18 11.33,4.84zm-124.83 -22l-0.11 0.01c-78.54,7.37 -117.7,14.38 -117.7,14.38l-74.61 10.54c-7.57,-147.02 -0.54,-329.42 -0.49,-482.48 0.01,-26.26 -0.11,-52.54 0.16,-78.8 0.54,-52.87 -22.12,-50.22 -62.42,-101.48l-38.39 -44.19c-23.56,-25.72 -10.99,-22.41 -12.78,-58.26 -3.93,-79.06 -120.25,-76.18 -129.62,-4.4 -10.21,78.26 79.96,80.63 80.52,80.91l111.01 125.92 0.6 570.74 126.01 -18.52c6.05,-10.83 3.19,-30.27 3.11,-42.72l0.16 -488.27c0.2,-213.75 17.26,-154.31 -43.59,-194.57 -40.34,-26.69 -62.06,-67.01 -55.76,-120.09 4.5,-37.95 23.52,-55.96 42.2,-75.17 93.58,-96.27 279.26,37.68 179.13,171.26 -19.87,26.51 -38.21,28.33 -70.79,46.18l0.61 693.2 62.73 -4.2zm-333.22 66.89c0,0 -35.28,22.87 -53.19,28.8 8.19,-41.06 2,-347.87 2.03,-415.42 0.05,-109.57 12.05,-68.31 -64.91,-143.54 -10,-9.77 -17.39,-12.38 -28.03,-23.21 -12.35,-12.58 -16.96,-12.65 -27.56,-23.69 -14.22,-14.81 -39.04,-35.14 -53.17,-48.65 -30.79,5.57 -49.2,22.82 -90.83,11.77 -41.13,-10.92 -71.14,-35.93 -88.06,-73.85 -46.07,-103.3 87.51,-204.84 178.85,-139.44 23.87,17.09 35.58,27.39 48.66,62.01 16.51,43.7 4.03,51.33 -5.69,86.61 -4.85,17.59 7.25,21.8 17.06,31.74l84.03 77.24c6.53,5.47 10.46,6.9 16.03,11.78l43.7 38.86c30.89,23.93 20.95,37.19 20.98,85.12 0.1,143.99 2.33,290.18 0.1,433.88zm-96.41 25.1c-1.9,-0.6 -63.1,-20.54 -110.3,-98.23 0.72,0.64 -0.42,-0.99 3.48,2.26l-0.84 -272.44c-38.22,-37.02 -26.01,-7.23 -29.89,-85.8l76.38 54.4c19.31,20.89 -8.78,336.02 7.35,366.09 10.64,9.18 31.73,25.01 53.83,33.72zm-199.51 -811.28c71.75,-7.59 87.8,106.2 12.57,112.41 -80.25,6.62 -91.43,-104.07 -12.57,-112.41zm1075.2 0.35c31.48,-6.36 60.36,20.52 65.46,46.83 6.24,32.19 -19.65,60.41 -45.6,65.07 -72.16,12.96 -105.1,-94.67 -19.86,-111.91zm-546.21 -157.17c79.41,-15.35 94.96,105.18 21.68,117.64 -78.82,13.4 -102.14,-102.09 -21.68,-117.64z"/>
   <path class="fil2" d="M2989.27 2294.4c-56.57,23.33 -107.24,45.43 -168.05,66.95 -45.2,16 -32.39,22.07 -51.25,63.39 -36.86,80.74 -113.74,203.76 -171.55,261.28l-43.53 47.16c-63.02,69.46 -219.31,189.44 -287.94,235.48 -38.22,25.64 -270.83,166.73 -298.81,167.35 -28.21,0.63 -261.79,-141.19 -297.4,-163.64 -105.02,-66.2 -124.81,-93.52 -197.9,-148.76l-118.42 -113.73c-91.75,-97.02 -153.53,-194.2 -204.54,-318.93 -8.67,-21.2 -12.11,-19.28 -32.17,-27.36l-171.29 -67.33c31.83,122.65 141.47,307.18 221.48,407.19l42.98 51.54c12.75,17.3 115.87,123.67 140.72,142.84 14.38,11.09 18.47,20.19 32.32,30.53l104.96 84.21c45.7,37.19 98.26,68.72 149.16,102.9 35.45,23.81 290.36,172.62 330.65,173.03 40.46,0.41 279.02,-145.04 325.57,-174 83.66,-52.04 198.93,-132.65 270.73,-201.82 19.04,-18.33 20.55,-12.49 49.2,-45.37 14.88,-17.08 31.19,-25.22 62.66,-63.37 4.32,-5.24 10.36,-12.85 14.58,-17.13 114.4,-116.05 264.19,-347.37 297.81,-492.42z"/>
   <path class="fil3" d="M1801.17 2859.62c-14.3,-6.48 -9.02,-3.89 -15.79,-15.81l5.59 -4.02c-3.66,-20.28 22.62,-45.69 38.33,-60.6 17.23,-16.37 51.67,-38.33 69.33,-3.08 14.9,29.75 -13.36,52.57 -28.37,67.8 -17.22,17.48 -41.2,44.01 -69.09,15.7zm-2.53 -177.01l-49.35 56.04c-7.68,8.75 -9.11,15.32 -16.52,22.87 -32.48,33.11 -100.18,-6.6 -47.7,-71.39l16.05 -19.3c17.37,-20.08 6.04,-13.26 36.04,-38.85 34.39,-29.35 85.05,7.43 61.49,50.63zm-113.72 -165.61c-4.43,10.27 -12.27,18.5 -18.64,28.44l-58.57 83.21c-44.11,68.73 -104.22,25.85 -94.33,-23.34 3.46,-17.2 63.8,-88.34 80.82,-108.44 12.46,-14.72 27.61,-39.53 59.07,-35.52 25.12,3.21 43.7,27.68 31.65,55.65zm-125.07 -181.13c-15.94,40.26 -58.17,94.97 -82.46,130.95 -14.8,21.93 -24.82,47.05 -63.34,41.78 -29.35,-4.02 -49.02,-29.84 -35.26,-61.79l84.34 -128.36c12.55,-20.12 25.87,-47.71 58.11,-43 25.8,3.77 50.11,31.35 38.61,60.41zm297.57 -469.08c-6.66,27.44 -43.6,77.85 -57.71,91.4 -100.33,96.39 -188.03,71.11 -151.52,-2.03l57.05 -88.58c18.67,-32.11 31.56,-61.09 49.34,-96.39 28.62,-56.83 138.96,-50.56 224.5,-66.21 123.31,-22.57 132.17,-11.11 234.64,39.58 157.86,78.07 129.06,7.95 188.82,102.25l173.04 263.96c22.43,33.22 101.83,140.75 115.23,175.93 -14.53,6.16 -15.06,12.99 -37.02,16.16l-17.73 -23.96c-8.31,-12.81 -4.24,-12.71 -18.93,-21.62 -23.15,56.25 -4.44,77.08 -52.68,114.03l-91.47 -82.9c-18.36,-18.12 -112.91,-91.85 -111.25,-106.1 2.54,-21.69 63.22,-36.17 75.96,-55.59 -62.77,3.17 -134.16,-16.02 -184.89,-47.59 -59.61,-37.08 -117.62,-91.34 -146.72,-156.05 -8.46,-18.82 -11.61,-35.8 -18.92,-56.41l-229.73 0.11zm308.11 485.87l99.77 88.35c24.75,24.33 68.11,57.66 102.53,94.13 10.96,11.61 21.95,20.56 32.09,31.07 11.34,11.76 20.71,24.13 15.1,46.94 -9.37,38.12 -55.5,40.16 -84.6,22.31 -14.6,-8.95 -22.95,-15.28 -36.57,-26.31 -12.13,-9.83 -26.24,-17.09 -39.21,-27.83l-106.54 -86.4c-23.9,-20.88 -41.22,-50.39 -70.9,14.2 10.23,18.66 94.77,83.71 120.11,106.06 32.2,28.39 24.74,17.44 57.83,52.41 14.07,14.88 47.63,36.1 22.52,71.8 -19.24,27.34 -53.65,18.58 -77.5,2.74l-196.06 -145.16c-12.7,9.21 -23.2,19.93 -30.92,38.16l74.07 67.11c17.67,20.75 48.59,41.46 69.75,71.91 19.43,27.96 -6.48,101.66 -85.64,46.22 -31.54,-22.08 -41.66,-25.01 -47.4,-46.87 -16.14,-61.51 -41.04,-74.03 -106.09,-84.14 2.59,-20.95 10.52,-20.82 5.19,-51.66 -16.52,-95.6 -97.99,-78.38 -110.38,-89.67 -7.93,-12.66 19.98,-79.57 -20.89,-125.1 -34.52,-38.45 -71.41,-32.89 -129.46,-35.23 2.54,-21.49 44.46,-96.6 -13.48,-160.58 -52.11,-57.54 -146.29,-45.8 -195.81,21.8l-47.98 74.11c-10.13,14.25 -11.7,13.28 -19.7,22.62l-25.52 -92.31c-8.77,16.49 -23.21,36.18 -32.84,50.26l-36.95 -13.93c5.18,-18.28 28.23,-47.2 40.81,-64.65l125.82 -181.2c13.83,-21.56 26.8,-40.58 40.87,-61.54l101.19 -154.74c7.51,-11.33 11.09,-21.01 20.08,-31.78 24.55,3.92 32.7,11.21 61.52,10.28l-65.23 100.96c-21.45,38.63 -33.26,98 -10.22,139.49 47.01,84.67 158.14,70.84 236.79,16.32 109.01,-75.57 81.4,-111.43 143.15,-111.26 80.81,0.22 69.56,-14.53 113.1,54.69 41.84,66.52 112.71,121.05 172.4,170.39 18.13,14.99 29.25,27.15 45.59,40.93 8.17,6.89 13.73,10.73 21.98,17.57 20.62,17.12 7.29,14.98 43.87,42.73l66.26 59.79c4.15,4.33 4.32,5.52 8.99,10.54l35.93 31.06c16.83,14.87 25.7,29.64 42.64,43.83 13.72,11.5 34.49,25.13 41.79,44.94 9.39,25.48 -4.12,47.56 -23.67,54.55 -28.44,10.18 -47.18,-5.43 -64.2,-17.93l-239.02 -191.3c-6.44,-2.47 -7.03,-8.91 -28.04,11.97 -8.78,8.73 -11.91,13.54 -16.94,27.33zm-1078.36 -147.39c29.8,-55.75 138.27,-207.54 174.61,-261.43l175.31 -257.98c10.81,6 26.09,17.53 29.2,29.71 6.13,24.08 -139.18,214.05 -162.09,243.32l-98.12 134.2c-44.47,61.08 -19.58,35.13 -66.92,82.58 -13.77,13.8 -28.44,26.86 -51.99,29.59zm1409.11 -523.81c16.76,16.45 241.59,353.28 263.42,386.85 15.06,23.16 76.1,116.11 83.3,135.3 -15.73,-5.12 -26.2,-12.31 -36.62,-20.4 -42.3,-32.83 -47.98,-48.05 -80.88,-92.16 -19.78,-26.52 -255.38,-351.09 -255.24,-377.57 0.05,-9.04 9.14,-17.1 17.04,-24.57l9 -7.44zm-1486.69 -353.59l-6.36 2.34c-15.85,2.33 -36.29,-5.96 -51.11,-9.78 -20.04,-5.15 -40.17,-10.17 -59.36,-15.59 -38.52,-10.86 -77.65,-22.21 -116.27,-33.13 -169.65,-47.97 -386.22,-115.98 -527.34,-220.81 -28.32,-21.04 -53.96,-41.58 -78.33,-67.69 -2.09,25.5 25.33,111.17 35.45,134.17 18.14,41.26 43.04,77.09 68.72,104.59 28.17,30.16 55.77,58.67 91.8,81.72 111.57,71.38 233.53,120.13 368.72,151.39 47.37,10.96 95.09,21.46 142.96,29.93 24.56,4.35 48.73,8.43 73.47,12.96 29.52,5.4 50.15,1.96 55.95,30.99 -106.54,-3.68 -256.24,-24.47 -363.01,-43.27 -118.49,-20.86 -214.72,-49.2 -310.38,-98.38 3.63,32.66 64.68,108.47 92.78,131.35 25.02,20.38 36.62,41.66 92.5,72.96 125.35,70.2 277.3,92.85 421.11,97.74 28.63,0.98 104.33,-1.97 120.91,10.05 -36.09,13.03 -57.78,14.92 -76.62,42.92 -13.86,20.58 -29.23,76.41 -0.41,92.73 45.69,25.87 176.51,-0.01 225.66,-9.63 -10.3,23.5 -24.58,31.26 -39.05,47.79 -42.5,48.56 -90.43,78.37 -150.78,108.99 -61.12,31 -206.84,56.85 -244.49,98.1 129.24,7.61 136.76,34.96 277.18,-5.84 -17.93,32.87 -34.22,58.11 -53.57,88.03l-49.9 86.76 88.11 40.95c103.27,41.64 170.83,66.52 274.11,122.79 0.11,52.85 -24.2,92.37 11.72,142.38 26.38,36.72 64.26,52.09 123.32,46.85 -0.07,40.3 1.14,84.7 31.4,113.56 34.27,32.69 51.83,35.37 110.03,31.38 -6.94,27.76 15.42,69.43 30.19,80.52 24.57,18.45 53.48,27.72 91.35,30.93 9.01,4.65 23.31,54.49 39.43,70.47 44.31,43.91 116.11,35.08 158.52,-4.24 19.31,-17.9 35.8,-47.37 52.81,-56.98 33.58,15.82 130.65,111.43 204.38,30.63 20.68,-22.67 19.03,-42.17 31.87,-70.19 39.59,2.3 70.97,17.47 109.78,-12.35 23.76,-18.26 40.95,-54.02 42.53,-97.85 81.81,0.8 133.45,-33.89 128.34,-121.44 60.1,-5.74 78.74,-6.45 108.99,-44.52 26.3,-33.09 24.43,-87 6.14,-127.3 30.25,-1.81 155.06,-74.3 193.13,-90.44 32.23,-13.67 185.47,-70.77 201.95,-85.12 -17.13,-55.34 -84.47,-123.28 -101.74,-174.7 90.39,20.79 112.21,27.91 210.44,15.1 18.31,-2.39 52.39,-2.81 65.76,-15.32 -30.39,-9.92 -64.16,-31.16 -123.39,-49.01 -116.46,-35.08 -222.65,-83.9 -296.17,-180.27l-16.61 -22.85c34.67,18.68 176.26,31.52 220.4,15.36 16.39,-6 20.67,-19.54 21.07,-41.02 1.43,-75.24 -70.44,-76.94 -84.34,-102.48 12.79,-4.55 97.2,-3.77 118.03,-5.2 110.09,-7.56 225.61,-19.65 328.89,-58.41 65.03,-24.4 109.31,-52.23 160.26,-95.72 21.52,-18.37 103.49,-106.5 107.78,-150.34 -123.16,78.8 -334.01,105.87 -486.78,125.98 -39.82,5.24 -150.45,19.89 -184.31,17.48 6.3,-14.32 0.65,-1.46 6.56,-10.27 10.73,-15.99 25.3,-16.61 46.76,-20.26 199.24,-33.89 420.83,-78.98 584.72,-195.15 18.25,-12.94 33.13,-26.36 49.21,-37.48 38.84,-26.85 92.03,-103.39 112.5,-147.42 16.64,-35.79 35.04,-92.39 36.4,-135.22l-82.81 65.31c-28.03,19.87 -58.63,39.55 -91.39,58 -176.16,99.17 -474.88,190.67 -672.76,230.93 5.67,-26.71 18.28,-26.82 56.84,-43.23 70.2,-29.87 142.21,-53.33 213.27,-81.98 139.62,-56.28 270.69,-116.24 383.94,-206.85 15.81,-12.65 38.49,-33.66 51.24,-47.24 7.2,-7.67 15.25,-15.29 23.02,-24.14 7.41,-8.45 13.39,-17.79 22.3,-29.08 49.21,-62.37 104.68,-204.91 79.86,-306.63 -29.3,63.66 -80.63,112.5 -130.28,161.64 -7.96,7.88 -14.32,12.19 -25.49,21.81 -191.42,164.78 -528.06,295.39 -769.56,368.56 -19.82,6.01 -45.14,30.9 -55.04,49.5 46.6,-15.24 182.7,-35.82 159.86,55.56 -8.44,33.78 -30.72,52.34 -53.2,68.5 -23.04,16.57 -48,23.19 -74.31,31.92l-11.35 4.88c195.09,-6.66 169.68,91.61 103,126.32 -31.37,16.33 -57.4,14.72 -90.14,23.48 28.63,20.15 99.82,27.44 103.2,79.11 4.14,63.29 -83.06,52.97 -113.9,71.3 3.77,18.53 64.3,62.65 -4.23,95.02 -21.49,10.15 -43.15,11.46 -68.64,11.59 -33.38,0.18 -43.06,-0.34 -57.31,-22.89 50.34,2.29 110.5,7.19 134.02,-29.69 -16.71,-41.9 -94.2,-75.79 -143.53,-73.83 -10.21,0.41 -20.19,3.76 -26.84,7.75 -11.2,6.72 -11.73,10.93 -20.5,19 -17.07,-8.52 -21.34,-19.47 -32.53,-30.54 -10.98,-10.85 -21.15,-19.72 -13.39,-38.75 12.79,-31.35 26.38,-53.18 36.66,-89.86 45.31,-161.63 -47.44,-309.57 106.94,-400.8 50.02,-29.56 129.47,-52.81 193.55,-62.67 -12.68,23.32 -46.27,51.89 -52.81,75.41 117.55,-40.01 241.51,-113.16 332.89,-189.02 23.63,-19.62 70.66,-63.55 77.07,-96.64 -166.74,86.61 -470.24,113.75 -621.71,182.08 -43.56,19.65 -83.19,59.38 -106.07,94.73 -82.41,127.32 16.86,323.02 -83.96,466.17l-0 0.04 -0.56 0.77 -0.94 1.29c-9.04,12.39 -57.53,77.28 -98.15,99.45l-0.42 0.23 -0.19 0.1c-3.84,2.11 -7.88,3.94 -12.07,5.41l-0.83 0.29 -0.17 0.06c-37.54,12.94 -61.51,-10.04 -61.51,-10.04l-53.84 -29.3c-12.36,-4.67 -21.51,-9.93 -32.04,-14.85 -28.1,-11.27 -71.27,-24.53 -115.48,-22.63l-9.34 0.63 -0.11 0.01c-78.54,7.37 -117.7,14.38 -117.7,14.38l-126.01 18.52c-53.77,8.17 -54.03,14.61 -89.4,33.99 0,0 -35.28,22.87 -53.19,28.8 -12.84,4.78 -28.08,2.21 -42.89,-3.57l-0.13 -0.05 -0.09 -0.03 -0.06 -0.02 -0.02 -0.01 -0.05 -0.02c-1.9,-0.6 -63.1,-20.54 -110.3,-98.23 -0.38,-0.34 -1.29,-1.32 -3.77,-4.02 -30.6,-33.38 -51.86,-85.1 -59.06,-129.57 -17.99,-111.15 24.64,-264.33 -41.06,-361.15 -13.74,-20.24 -30.22,-36.02 -47.2,-51.62 -19.94,-18.32 -33.64,-29.52 -59.85,-42.61 -71.91,-35.91 -228.24,-59.91 -317.43,-84.11 -106.87,-29 -203.35,-60.61 -303.48,-96.18 32.76,54.7 77.8,91.42 125.43,132.69 15.69,13.59 34.63,24.21 53.72,36.99 65.3,43.69 156.74,86.76 233.96,120.28 -12.86,-25.99 -47.7,-57.27 -53.32,-79.93 43.81,-1.16 151.57,40.37 188.55,58.88 158.4,79.29 70.06,235.72 109.23,402.3 17.15,72.93 70.19,99.3 14.96,150.92 -4.5,4.21 -4.91,4.32 -8.21,7.06 -0.59,0.48 -1.46,1.27 -2.05,1.74l-8.87 6.42c-27.16,-39.24 -60.67,-33.71 -104,-20.44 -119.95,36.73 -118.76,104.85 47.91,92.59 -22.94,32.76 -91.85,29.33 -125.66,10.78 -73,-40.06 -9.46,-71.24 -4.59,-97.2 -31.77,-3.04 -52.91,-4.8 -78.87,-16.21 -47.37,-20.83 -53.31,-67.36 7.93,-103.75 20.56,-12.22 47.87,-18.28 67.26,-26.84 -40.94,-15.62 -119.59,2.47 -144.49,-72.39 -11.94,-35.9 18.6,-54.04 39.44,-64.57 32.93,-16.65 59.46,-11 96.54,-13.83 -30.09,-18.72 -113.43,-25.84 -125.9,-107.86 -13.06,-85.91 108.1,-68.04 155.81,-52.74 -10.71,-17.63 -32.06,-42.14 -51.65,-47.91 -260.66,-76.81 -519.13,-185.13 -735.37,-347.28 -66.65,-49.98 -120.96,-108.85 -169.99,-176.37 -8.17,-11.25 -11.13,-18.52 -19.03,-28.83 -17.55,97.78 33.31,245.55 79.87,306.39 31.67,41.37 66.58,75.83 107.65,109.02 146.78,118.62 330.29,177.78 506.34,249.83 24.21,9.91 48.23,18.1 70.43,28 16,7.13 56.87,17.49 54.65,37.43zm-118.56 -619.13l0.34 154.51c1.37,0.63 2.83,0.32 3.35,1.69 0.51,1.35 2.19,1.28 2.9,1.61l27.88 8.48c12.06,2.95 22.73,5.37 34.65,8.5 18.25,4.78 53.25,15.89 69.57,17.28l0.7 -53.31c17.61,-8.88 217.07,-37.43 253.09,-43.19 209.2,-33.48 381.71,-86.57 575.76,-160.49 156.18,-59.49 58.56,-57.86 320.39,36.17 238.12,85.52 476.58,127.5 727.24,164.14l0.2 56.74 136.55 -34.2 0.61 -157.33c-175.52,-2.42 -403.37,-55.72 -573.76,-96.32 -83.63,-19.93 -178.23,-48.07 -257.06,-77.41l-244.37 -94.1c-11.93,0.75 -99.29,40.41 -118.1,47.94 -113.63,45.48 -262.59,96.15 -380.65,123.45 -149.35,34.54 -431.87,99.42 -579.31,95.87zm54.37 1138.89c-4.59,-28.65 -12.42,-37.59 -2.58,-73.02 4.91,-17.68 20.5,-45.87 19.58,-58.19 -44.06,-3.7 -98.09,-2.39 -143.55,-3.9 -83.56,-2.78 -176.54,-14.33 -257.76,-36.51 -41.75,-11.4 -75.84,-28.51 -113.92,-40.13 24.26,63.27 118.94,146.08 186.02,177.06 42.48,19.62 90.11,33.65 141.27,40.55 36.94,4.98 137.67,6.94 170.93,-5.86zm2024.61 -132.4c3.04,13.67 16.56,36.24 22.3,57.58 9.49,35.3 -0.11,47.06 -1.04,78.3 149.43,11.62 248.65,6.66 367.31,-74.19 50.65,-34.51 104.07,-84.91 128.95,-142.46 -145.9,62.51 -343.28,90.41 -517.53,80.76zm-2343.15 164.19c16.89,22.74 79.36,57.85 108.09,72.06 97.53,48.22 196.85,45.57 293.18,-4.83 19.89,-10.4 40.45,-21.2 57.36,-33.16l53.6 -41.66c-5.28,-4.23 -1.65,-3.35 -11.19,-5.91 -6.83,-1.82 -7.85,-0.85 -14.89,-0.4 -11.28,0.73 -22.96,1.98 -34.21,2.91 -24.56,2.02 -46.39,-1.37 -70.95,-1.49 -111.07,-0.56 -96.15,47.41 -381,12.47zm2675.76 0.87c-29.46,-1.23 -83.02,12.7 -121.07,13.44 -124.54,2.42 -190.28,-26.42 -248.08,-26.78 -48.13,-0.3 -89.5,4.78 -137.54,-3.17 30.7,49.99 165.09,116.79 243.57,122.17 53.34,3.66 111.84,-12.88 154.13,-31.53 66.51,-29.33 65.91,-40.06 108.98,-74.12zm-2072.9 -551.88c7.9,-122.84 -151.48,-138.94 -187.3,-107.84 -17.35,15.06 -3.46,43.93 7.54,57.39 12.98,15.89 25.42,24.79 46.1,36.74 42.27,24.42 87.28,22.58 133.65,13.71zm1671.56 -106.49c-47.89,-24.22 -139.06,-18.83 -177.94,37.86 -7.56,11.01 -23.56,46.66 -16.46,62.24 13.59,29.83 103,6.46 127.73,-6.06 19.44,-9.83 33.08,-20.68 44.52,-34.58 12.02,-14.61 25.33,-32.46 22.15,-59.46zm-126.08 162.62c-124.71,22.08 -93.88,129.13 61.04,94.37 80.71,-18.11 115.94,-86.54 14.34,-96.02 -24.98,-2.33 -50.72,-2.72 -75.38,1.65zm-1698.75 1.21c-110.05,16.41 -30.06,115.7 108.53,99.67 46.37,-5.37 68.8,-57.63 25.81,-84.86 -33.58,-21.27 -91.97,-21.13 -134.34,-14.81zm1628.96 141.96c-20.54,8.54 -47.43,54.43 22.37,88.54 102.21,49.95 216.76,-26.46 100.53,-69.34 -30.41,-11.22 -92.24,-31.97 -122.9,-19.2zm-1519.93 -0.5c-193.66,35.59 -127.45,102.81 -55.59,105.43 65.77,2.4 153.34,-44.1 112.03,-93.74 -13.77,-16.55 -30.68,-16.43 -56.43,-11.7z"/>
  </g>
 </g>
</svg>
